<svg id="Layer_1" data-name="Layer 1" xmlns="http://www.w3.org/2000/svg" viewBox="0 0 400 300" width="406" height="306" class="illustration styles_illustrationTablet__1DWOa"><ellipse cx="195.98" cy="202.01" rx="127.3" ry="55.54" fill="#c1c1c1"></ellipse><ellipse cx="195.98" cy="192.47" rx="127.3" ry="55.54" fill="#e6e6e6"></ellipse><polygon points="137.12 191.35 133.98 116.61 266.71 153.75 269.06 220.33 137.12 191.35" fill="#c1c1c1"></polygon><polygon points="137.12 191.35 133.98 116.61 266.71 153.75 269.06 220.33 137.12 191.35" fill="#68e1fd"></polygon><polygon points="137.12 191.35 133.98 116.61 266.71 153.75 269.06 220.33 137.12 191.35" fill="#ffd200"></polygon><path d="M266.71,153.75,196.63,75.47S151.21,81.41,134,116.61Z" fill="#68e1fd"></path><path d="M164.27,91.46c-6.84,7.11-3.89,19.14,5.65,21.65a27.06,27.06,0,0,0,3.71.67c19.15,2.15,28.82,5,35.82-5.51S211.14,86,203.93,81s3.66-11.45-6.42-17.62S184.19,60.11,186.64,44c0,0-21.53,15.86-18.59,32C169.45,83.68,167.11,88.51,164.27,91.46Z" fill="#68e1fd"></path><path d="M164.27,91.46c-6.84,7.11-3.89,19.14,5.65,21.65a27.06,27.06,0,0,0,3.71.67c19.15,2.15,28.82,5,35.82-5.51S211.14,86,203.93,81s3.66-11.45-6.42-17.62S184.19,60.11,186.64,44c0,0-21.53,15.86-18.59,32C169.45,83.68,167.11,88.51,164.27,91.46Z" fill="#fff" opacity="0.55"></path><circle cx="207.98" cy="105.91" r="15.06" fill="#24285b"></circle><circle cx="234.86" cy="125.49" r="10.87" fill="#24285b"></circle><circle cx="238.38" cy="122.94" r="4.44" fill="#fff" opacity="0.36"></circle><circle cx="213.63" cy="102.87" r="6.09" fill="#fff" opacity="0.36"></circle><path d="M134,116.61l.92,21.78s4.56,6.94,14.84-1.22,16.15,1.62,17.33,10.09,8.51,8.47,20.84,3.48,15.86-4.4,17.33,7.34,19.67,10.57,22.61,3.52,16.15-4.84,20.26,3.16,19.22,6.53,19.22,6.53l-.62-17.54S161.68,119.78,134,116.61Z" fill="#68e1fd"></path><path d="M134,116.61l.92,21.78s4.56,6.94,14.84-1.22,16.15,1.62,17.33,10.09,8.51,8.47,20.84,3.48,15.86-4.4,17.33,7.34,19.67,10.57,22.61,3.52,16.15-4.84,20.26,3.16,19.22,6.53,19.22,6.53l-.62-17.54S161.68,119.78,134,116.61Z" opacity="0.06"></path><polygon points="135.64 156.14 267.75 183.34 267.92 188.23 135.92 162.8 135.64 156.14" fill="#fff" opacity="0.55"></polygon><polygon points="136.52 177.07 268.38 201.16 268.55 206.01 136.76 182.94 136.52 177.07" fill="#fff" opacity="0.55"></polygon><path d="M118.41,200.65,83.52,218.51s51.38,45.06,168.29,23.89l17.25-22.07-104.28-22.9s8.16-31.88-14.8-38.34S118.41,200.65,118.41,200.65Z" opacity="0.11"></path><ellipse cx="138.14" cy="176.61" rx="29.2" ry="22.23" transform="translate(-64.42 272.75) rotate(-77.36)" fill="#24285b"></ellipse><ellipse cx="138.14" cy="176.61" rx="29.2" ry="22.23" transform="translate(-64.42 272.75) rotate(-77.36)" fill="#fff" opacity="0.36"></ellipse><ellipse cx="132.95" cy="175.44" rx="29.2" ry="22.23" transform="translate(-67.34 266.77) rotate(-77.36)" fill="#24285b"></ellipse><ellipse cx="132.95" cy="175.44" rx="19.53" ry="14.86" transform="translate(-67.34 266.77) rotate(-77.36)" opacity="0.31"></ellipse></svg>